# xmcd
#
# Track frame offsets: 
#        150
#        15620
#        33910
#        49844
#        64915
#        83862
#        100091
#        126444
#        144472
#        163151
#        183016
#        204757
#        224541
#        246708
#        262475
#        293943
#        312482
#
# Disc length: 4413 seconds
#
# Revision: 0
# Processed by: cddbd v1.5.1PL2 Copyright (c) Steve Scherf et al.
# Submitted via: ExactAudioCopy v0.95a5
#
DISCID=09113b11
DTITLE=Barry White - The Ultimate Collection
DYEAR=1999
DGENRE=Pop
TTITLE0=You're The First, The Last, My Everything
TTITLE1=Can't Get Enough Of Your Love Babe
TTITLE2=Let The Music Play
TTITLE3=Don't Make Me Wait Too Long
TTITLE4=I'll Do For You Anything You Want Me To
TTITLE5=Sho' You Right
TTITLE6=What I'm Gonna Do With You
TTITLE7=Come On
TTITLE8=I'm Gonna Love You Just A Little More Babe
TTITLE9=Never, Never Gonna Give You Up
TTITLE10=Babe We Better Try And Get It Together
TTITLE11=Just The Way You Are
TTITLE12=I'm Qualified To Satisfy You
TTITLE13=Dark And Lovely (You Over There) - Radio Edit
TTITLE14=You See The Trouble With Me
TTITLE15=It's Ecstasy When You Lay Down Next To Me
TTITLE16=The Right Night
EXTD=
EXTT0=
EXTT1=
EXTT2=
EXTT3=
EXTT4=
EXTT5=
EXTT6=
EXTT7=
EXTT8=
EXTT9=
EXTT10=
EXTT11=
EXTT12=
EXTT13=
EXTT14=
EXTT15=
EXTT16=
PLAYORDER=
